# xmcd
# Track frame offsets:
# 900
# 11045
# 22836
# 33309
# 41178
# 51217
# 63867
# 73338
# 83818
# 92531
# 102068
# 113849
# 125629
# 135602
# 145758
# 159020
# 173727
# 184006
# 195422
# 210437
# 222027
# 236522
# 245631
# 257248
# 272595
# 284433
# 297688
# 309909
# 321373
# 331102
#
# Disc length: 4599 seconds
# Revision: 0
# Processed by: cddbd v1.5PL3 Copyright (c) Steve Scherf et al.
# Submitted via: VisiTrax 2.9.9.202 - For more info visit www.synapsa.com
#
DISCID=ae11eb1e
DTITLE=Richard Berry - Have "Louie" Will Travel
DYEAR=1900
DGENRE=
TTITLE0=Richard Berry and The Pharaohs - Louie Louie
TTITLE1=Richard Berry and The Pharaohs - No Kissin' And A-Huggin'
TTITLE2=Richard Berry and The Pharaohs - You're The Girl
TTITLE3=Richard Berry and The Pharaohs - Rock Rock Rock [This Dance Is Crazy]
TTITLE4=Richard Berry and The Pharaohs - I'll Never Ever Love Again
TTITLE5=Richard Berry and The Pharaohs - Sweet Sugar You
TTITLE6=Richard Berry and The Pharaohs - Somewhere There's A Rainbow
TTITLE7=Richard Berry and The Pharaohs - You Look So Good *
TTITLE8=Richard Berry and The Pharaohs - Take The Key And Open Up My Heart
TTITLE9=Richard Berry and The Lockettes - Heaven On Wheels *
TTITLE10=Richard Berry and The Pharaohs - You Are Sunshine *
TTITLE11=Richard Berry and The Lockettes - The Mess Around
TTITLE12=Richard Berry and The Pharaohs - Besame Mucho
TTITLE13=Richard Berry and The Pharaohs - Do I Do I Do I
TTITLE14=Richard Berry and The Pharaohs - Have Love Will Travel
TTITLE15=Richard Berry and The Pharaohs - No Room
TTITLE16=Richard Berry - In A Real Big Way
TTITLE17=Richard Berry - Well Done
TTITLE18=Richard Berry - I Want You To Be My Girl
TTITLE19=Richard Berry - It's All Right
TTITLE20=Richard Berry - Weep No More
TTITLE21=Richard Berry - Everybody's Got A Lover But Me
TTITLE22=Richard Berry - Tell Me Why
TTITLE23=Richard Berry - Dreams Of An Angel
TTITLE24=Richard Berry - Give It Up
TTITLE25=Richard Berry - I'm Your Fool
TTITLE26=Richard Berry - What Good Is A Heart
TTITLE27=Richard Berry - Empty Chair
TTITLE28=Richard Berry - I'm Learning
TTITLE29=Richard Berry - Walk Right In
EXTD=www.rockola.net
EXTT0=
EXTT1=
EXTT2=
EXTT3=
EXTT4=
EXTT5=
EXTT6=
EXTT7=
EXTT8=
EXTT9=
EXTT10=
EXTT11=
EXTT12=
EXTT13=
EXTT14=
EXTT15=
EXTT16=
EXTT17=
EXTT18=
EXTT19=
EXTT20=
EXTT21=
EXTT22=
EXTT23=
EXTT24=
EXTT25=
EXTT26=
EXTT27=
EXTT28=
EXTT29=
PLAYORDER=
